<svg width="1080" height="1080" viewBox="0 0 1080 1080" fill="none" xmlns="http://www.w3.org/2000/svg">
<g clip-path="url(#clip0_33_847)">
<rect width="1080" height="1080" fill="white"/>
<path d="M265.874 339.045L236.016 339.371C232.771 307.74 213.623 292.087 178.573 292.087C162.021 292.087 149.039 295.348 139.952 302.196C130.865 308.718 126.321 318.175 126.321 330.566C126.321 334.806 126.97 338.719 128.269 341.98C129.567 345.241 131.839 347.849 135.084 350.458C138.329 353.067 141.25 355.023 143.847 356.98C146.767 358.61 151.311 360.241 157.153 361.871C163.319 363.828 168.187 365.132 171.757 365.784C175.652 366.437 181.169 367.741 188.958 369.371C198.694 371.328 206.483 373.285 212.649 374.915C219.14 376.545 226.605 379.154 235.043 382.741C243.805 386.654 250.621 390.567 255.813 395.133C261.006 399.698 265.225 405.568 269.12 412.742C273.014 420.242 274.637 428.72 274.637 437.851C274.637 454.156 270.093 467.851 261.006 478.939C251.919 490.026 240.885 497.526 227.903 501.765C214.921 506.33 200.641 508.287 184.739 508.287C155.855 508.287 132.812 501.439 115.287 487.743C97.7616 474.047 88.999 453.503 88.999 426.438H118.532C119.181 446.329 125.997 460.677 138.329 469.808C150.986 478.939 167.214 483.504 187.335 483.504C203.238 483.504 216.868 479.917 228.227 473.395C239.262 466.873 245.104 456.112 245.104 441.112C245.104 433.938 243.481 428.068 240.56 423.177C237.315 418.285 232.771 414.372 226.28 411.111C219.789 407.85 213.298 405.568 206.808 403.611C200.317 401.655 191.554 399.372 181.169 397.089C179.546 396.763 178.573 396.437 177.923 396.111C153.907 390.894 138.329 386.328 131.189 383.067C108.472 373.285 97.4371 356.654 97.4371 332.523C97.4371 310.349 105.551 294.044 121.778 282.957C138.005 271.87 157.802 266.326 180.844 266.326C206.159 266.326 226.605 272.522 241.534 284.587C256.787 296.979 264.901 314.914 265.874 339.045Z" fill="#000180"/>
<path d="M311.452 270.891H344.88L466.907 459.373V270.891H496.441V503.069H462.039L340.661 316.87V503.069H311.452V270.891Z" fill="#000180"/>
<path d="M547.29 270.891H589.48L663.8 467.525L735.524 270.891H778.039V503.069H749.155V309.37L676.782 503.069H650.169L576.499 309.37V503.069H547.29V270.891Z" fill="#000180"/>
<path d="M989.021 270.891L903.018 503.069H886.791L799.165 270.891H814.742L883.87 456.764C885.493 461.33 887.764 467.525 890.361 475.678C892.957 483.83 894.58 488.721 895.229 490.678C896.203 486.113 899.772 475.025 906.263 457.416L974.742 270.891H989.021Z" fill="#000180"/>
<path d="M1019.09 270.891V503.069H1005.14V270.891H1019.09Z" fill="#000180"/>
<path d="M1224.83 337.088L1210.55 337.414C1208.28 298.283 1183.94 278.718 1137.85 278.718C1117.73 278.718 1101.83 282.957 1090.14 291.435C1078.79 299.914 1072.94 311.979 1072.94 327.305C1072.94 333.827 1074.24 339.697 1076.51 344.914C1079.11 349.806 1082.03 354.045 1085.92 357.306C1089.82 360.567 1095.01 363.176 1101.18 365.784C1107.67 368.393 1114.16 370.35 1120.65 371.98C1127.14 373.611 1134.93 375.567 1143.69 377.524C1148.56 378.176 1152.13 379.154 1154.4 379.806C1161.87 381.437 1167.06 382.741 1170.31 383.393C1173.55 384.046 1178.42 385.676 1184.91 387.633C1191.4 389.589 1196.27 391.546 1199.51 393.502C1202.76 395.133 1206.98 397.741 1211.52 401.002C1216.07 404.263 1219.64 407.524 1221.91 411.111C1224.18 414.698 1226.13 419.264 1227.75 424.481C1229.7 429.699 1230.35 435.568 1230.35 441.764C1230.35 462.634 1222.88 478.612 1207.3 490.352C1192.05 502.091 1170.95 507.961 1143.69 507.961C1115.46 507.961 1093.06 501.113 1076.84 487.417C1060.61 473.721 1052.17 453.503 1052.17 426.112H1065.48C1066.13 449.59 1073.27 467.199 1086.9 478.939C1100.53 490.678 1119.68 496.221 1144.34 496.221C1167.06 496.221 1184.91 491.656 1197.57 482.199C1210.55 472.743 1216.72 459.373 1216.72 442.416C1216.72 437.525 1216.07 432.959 1214.44 428.72C1213.15 424.807 1211.2 421.22 1209.25 417.959C1207.3 415.024 1204.06 412.09 1200.16 409.481C1196.27 406.872 1192.7 404.916 1189.45 403.285C1186.53 401.981 1182.31 400.35 1176.8 398.72C1171.28 397.089 1167.06 395.785 1164.14 395.133C1161.54 394.481 1157 393.502 1151.16 392.198C1145.32 390.894 1141.1 390.241 1139.15 389.589C1115.13 384.046 1099.23 379.48 1091.44 375.893C1070.02 366.11 1058.99 350.132 1058.99 327.305C1058.99 308.392 1066.13 293.718 1080.41 282.631C1094.69 271.544 1114.16 266 1138.83 266C1164.14 266 1184.59 271.87 1199.51 283.609C1214.77 295.348 1223.21 313.283 1224.83 337.088Z" fill="#000180"/>
<path d="M1441.26 270.891L1440.94 423.829C1440.94 450.242 1433.15 470.786 1417.57 485.786C1401.99 500.787 1380.57 507.961 1353.63 507.961C1292.94 507.961 1262.76 476.004 1262.76 412.09V270.891H1277.04V412.742C1277.04 440.134 1282.88 461.003 1294.89 475.025C1306.58 489.047 1326.37 495.895 1353.63 495.895C1379.92 495.895 1398.75 488.721 1410.1 474.373C1421.46 460.025 1427.3 439.481 1427.3 412.742V270.891H1441.26Z" fill="#000180"/>
<path d="M1566.49 270.891L1658.34 503.069H1642.76L1613.88 428.068H1502.56L1473.02 503.069H1457.77L1551.56 270.891H1566.49ZM1609.33 416.329L1567.14 308.718C1565.84 306.109 1564.55 302.196 1562.6 296.327C1560.65 290.783 1559.35 286.87 1558.7 284.261L1549.94 307.74L1506.78 416.329H1609.33Z" fill="#000180"/>
<path d="M1820.21 490.352V503.069H1674.17V270.891H1688.45V490.352H1820.21Z" fill="#000180"/>
<path d="M2001.95 337.088L1987.67 337.414C1985.4 298.283 1961.06 278.718 1914.98 278.718C1894.86 278.718 1878.95 282.957 1867.27 291.435C1855.91 299.914 1850.07 311.979 1850.07 327.305C1850.07 333.827 1851.37 339.697 1853.64 344.914C1856.23 349.806 1859.16 354.045 1863.05 357.306C1866.94 360.567 1872.14 363.176 1878.3 365.784C1884.79 368.393 1891.29 370.35 1897.78 371.98C1904.27 373.611 1912.06 375.567 1920.82 377.524C1925.69 378.176 1929.26 379.154 1931.53 379.806C1938.99 381.437 1944.19 382.741 1947.43 383.393C1950.68 384.046 1955.54 385.676 1962.04 387.633C1968.53 389.589 1973.39 391.546 1976.64 393.502C1979.89 395.133 1984.1 397.741 1988.65 401.002C1993.19 404.263 1996.76 407.524 1999.03 411.111C2001.3 414.698 2003.25 419.264 2004.87 424.481C2006.82 429.699 2007.47 435.568 2007.47 441.764C2007.47 462.634 2000.01 478.612 1984.43 490.352C1969.18 502.091 1948.08 507.961 1920.82 507.961C1892.58 507.961 1870.19 501.113 1853.96 487.417C1837.74 473.721 1829.3 453.503 1829.3 426.112H1842.6C1843.25 449.59 1850.39 467.199 1864.02 478.939C1877.65 490.678 1896.8 496.221 1921.47 496.221C1944.19 496.221 1962.04 491.656 1974.69 482.199C1987.67 472.743 1993.84 459.373 1993.84 442.416C1993.84 437.525 1993.19 432.959 1991.57 428.72C1990.27 424.807 1988.32 421.22 1986.38 417.959C1984.43 415.024 1981.18 412.09 1977.29 409.481C1973.39 406.872 1969.82 404.916 1966.58 403.285C1963.66 401.981 1959.44 400.35 1953.92 398.72C1948.4 397.089 1944.19 395.785 1941.26 395.133C1938.67 394.481 1934.12 393.502 1928.28 392.198C1922.44 390.894 1918.22 390.241 1916.27 389.589C1892.26 384.046 1876.36 379.48 1868.57 375.893C1847.15 366.11 1836.11 350.132 1836.11 327.305C1836.11 308.392 1843.25 293.718 1857.53 282.631C1871.81 271.544 1891.29 266 1915.95 266C1941.26 266 1961.71 271.87 1976.64 283.609C1991.89 295.348 2000.33 313.283 2001.95 337.088Z" fill="#000180"/>
<path d="M-818.125 645.045L-847.983 645.371C-851.228 613.74 -870.376 598.087 -905.427 598.087C-921.978 598.087 -934.96 601.348 -944.047 608.196C-953.134 614.718 -957.678 624.175 -957.678 636.566C-957.678 640.806 -957.029 644.719 -955.73 647.98C-954.432 651.241 -952.161 653.849 -948.915 656.458C-945.67 659.067 -942.749 661.023 -940.152 662.98C-937.232 664.61 -932.688 666.241 -926.846 667.871C-920.68 669.828 -915.812 671.132 -912.242 671.784C-908.347 672.437 -902.83 673.741 -895.041 675.371C-885.305 677.328 -877.516 679.285 -871.35 680.915C-864.859 682.545 -857.394 685.154 -848.956 688.741C-840.194 692.654 -833.378 696.567 -828.186 701.133C-822.993 705.698 -818.774 711.568 -814.879 718.742C-810.985 726.242 -809.362 734.72 -809.362 743.851C-809.362 760.156 -813.906 773.851 -822.993 784.939C-832.08 796.026 -843.115 803.526 -856.096 807.765C-869.078 812.33 -883.358 814.287 -899.26 814.287C-928.144 814.287 -951.187 807.439 -968.712 793.743C-986.237 780.047 -995 759.503 -995 732.438H-965.467C-964.818 752.329 -958.002 766.677 -945.67 775.808C-933.013 784.939 -916.785 789.504 -896.664 789.504C-880.761 789.504 -867.131 785.917 -855.772 779.395C-844.737 772.873 -838.895 762.112 -838.895 747.112C-838.895 739.938 -840.518 734.068 -843.439 729.177C-846.684 724.285 -851.228 720.372 -857.719 717.111C-864.21 713.85 -870.701 711.568 -877.191 709.611C-883.682 707.655 -892.445 705.372 -902.83 703.089C-904.453 702.763 -905.427 702.437 -906.076 702.111C-930.092 696.894 -945.67 692.328 -952.81 689.067C-975.528 679.285 -986.562 662.654 -986.562 638.523C-986.562 616.349 -978.448 600.044 -962.221 588.957C-945.994 577.87 -926.197 572.326 -903.155 572.326C-877.84 572.326 -857.394 578.522 -842.465 590.587C-827.212 602.979 -819.098 620.914 -818.125 645.045Z" fill="#000180"/>
<path d="M-772.547 576.891H-739.119L-617.092 765.373V576.891H-587.558V809.069H-621.96L-743.338 622.87V809.069H-772.547V576.891Z" fill="#000180"/>
<path d="M-536.709 576.891H-494.519L-420.199 773.525L-348.475 576.891H-305.96V809.069H-334.844V615.37L-407.217 809.069H-433.83L-507.5 615.37V809.069H-536.709V576.891Z" fill="#000180"/>
<path d="M-94.9776 576.891L-180.981 809.069H-197.208L-284.834 576.891H-269.257L-200.129 762.764C-198.506 767.33 -196.235 773.525 -193.638 781.678C-191.042 789.83 -189.419 794.721 -188.77 796.678C-187.797 792.113 -184.227 781.025 -177.736 763.416L-109.257 576.891H-94.9776Z" fill="#000180"/>
<path d="M-64.9042 576.891V809.069H-78.8596V576.891H-64.9042Z" fill="#000180"/>
<path d="M140.83 643.088L126.55 643.414C124.278 604.283 99.9376 584.718 53.8527 584.718C33.7311 584.718 17.8285 588.957 6.14502 597.435C-5.21393 605.914 -11.0557 617.979 -11.0557 633.305C-11.0557 639.827 -9.75757 645.697 -7.48578 650.914C-4.8894 655.806 -1.96857 660.045 1.92596 663.306C5.82043 666.567 11.0131 669.176 17.1794 671.784C23.6702 674.393 30.161 676.35 36.6519 677.98C43.1427 679.611 50.9318 681.567 59.6943 683.524C64.5625 684.176 68.1324 685.154 70.4042 685.806C77.8687 687.437 83.0614 688.741 86.3068 689.393C89.5522 690.046 94.4204 691.676 100.911 693.633C107.402 695.589 112.27 697.546 115.516 699.502C118.761 701.133 122.98 703.741 127.524 707.002C132.067 710.263 135.637 713.524 137.909 717.111C140.181 720.698 142.128 725.264 143.751 730.481C145.698 735.699 146.347 741.568 146.347 747.764C146.347 768.634 138.883 784.612 123.305 796.352C108.051 808.091 86.9558 813.961 59.6943 813.961C31.4592 813.961 9.06586 807.113 -7.16125 793.417C-23.3883 779.721 -31.8264 759.503 -31.8264 732.112H-18.5201C-17.8711 755.59 -10.7311 773.199 2.8996 784.939C16.5303 796.678 35.6783 802.221 60.3435 802.221C83.0614 802.221 100.911 797.656 113.568 788.199C126.55 778.743 132.716 765.373 132.716 748.416C132.716 743.525 132.067 738.959 130.444 734.72C129.146 730.807 127.199 727.22 125.252 723.959C123.304 721.024 120.059 718.09 116.165 715.481C112.27 712.872 108.7 710.916 105.455 709.285C102.534 707.981 98.3148 706.35 92.7976 704.72C87.2804 703.089 83.0614 701.785 80.1405 701.133C77.5442 700.481 73.0006 699.502 67.1588 698.198C61.317 696.894 57.098 696.241 55.1508 695.589C31.1348 690.046 15.2322 685.48 7.44318 681.893C-13.9766 672.11 -25.011 656.132 -25.011 633.305C-25.011 614.392 -17.8711 599.718 -3.59125 588.631C10.6886 577.544 30.1611 572 54.8263 572C80.1405 572 100.587 577.87 115.516 589.609C130.769 601.348 139.207 619.283 140.83 643.088Z" fill="#000180"/>
<path d="M357.261 576.891L356.937 729.829C356.937 756.242 349.148 776.786 333.57 791.786C317.992 806.787 296.572 813.961 269.635 813.961C208.945 813.961 178.763 782.004 178.763 718.09V576.891H193.043V718.742C193.043 746.134 198.885 767.003 210.893 781.025C222.576 795.047 242.373 801.895 269.635 801.895C295.923 801.895 314.746 794.721 326.105 780.373C337.464 766.025 343.306 745.481 343.306 718.742V576.891H357.261Z" fill="#000180"/>
<path d="M482.494 576.891L574.339 809.069H558.761L529.876 734.068H418.559L389.026 809.069H373.772L467.565 576.891H482.494ZM525.333 722.329L483.142 614.718C481.844 612.109 480.546 608.196 478.599 602.327C476.652 596.783 475.354 592.87 474.705 590.261L465.942 613.74L422.778 722.329H525.333Z" fill="#000180"/>
<path d="M736.212 796.352V809.069H590.168V576.891H604.448V796.352H736.212Z" fill="#000180"/>
<path d="M917.955 643.088L903.675 643.414C901.403 604.283 877.062 584.718 830.978 584.718C810.856 584.718 794.954 588.957 783.27 597.435C771.911 605.914 766.069 617.979 766.069 633.305C766.069 639.827 767.368 645.697 769.639 650.914C772.236 655.806 775.156 660.045 779.051 663.306C782.946 666.567 788.138 669.176 794.304 671.784C800.795 674.393 807.286 676.35 813.777 677.98C820.268 679.611 828.057 681.567 836.819 683.524C841.688 684.176 845.257 685.154 847.529 685.806C854.994 687.437 860.187 688.741 863.432 689.393C866.677 690.046 871.545 691.676 878.036 693.633C884.527 695.589 889.395 697.546 892.641 699.502C895.886 701.133 900.105 703.741 904.649 707.002C909.192 710.263 912.762 713.524 915.034 717.111C917.306 720.698 919.253 725.264 920.876 730.481C922.823 735.699 923.472 741.568 923.472 747.764C923.472 768.634 916.008 784.612 900.43 796.352C885.176 808.091 864.081 813.961 836.819 813.961C808.584 813.961 786.191 807.113 769.964 793.417C753.737 779.721 745.299 759.503 745.299 732.112H758.605C759.254 755.59 766.394 773.199 780.025 784.939C793.655 796.678 812.803 802.221 837.469 802.221C860.186 802.221 878.036 797.656 890.693 788.199C903.675 778.743 909.841 765.373 909.841 748.416C909.841 743.525 909.192 738.959 907.569 734.72C906.271 730.807 904.324 727.22 902.377 723.959C900.43 721.024 897.184 718.09 893.29 715.481C889.395 712.872 885.825 710.916 882.58 709.285C879.659 707.981 875.44 706.35 869.923 704.72C864.406 703.089 860.187 701.785 857.266 701.133C854.669 700.481 850.126 699.502 844.284 698.198C838.442 696.894 834.223 696.241 832.276 695.589C808.26 690.046 792.357 685.48 784.568 681.893C763.149 672.11 752.114 656.132 752.114 633.305C752.114 614.392 759.254 599.718 773.534 588.631C787.814 577.544 807.286 572 831.951 572C857.266 572 877.712 577.87 892.641 589.609C907.894 601.348 916.332 619.283 917.955 643.088Z" fill="#000180"/>
</g>
<defs>
<clipPath id="clip0_33_847">
<rect width="1080" height="1080" fill="white"/>
</clipPath>
</defs>
</svg>
